<?xml version="1.0" encoding="UTF-8" standalone="no"?>
<svg
   xmlns:dc="http://purl.org/dc/elements/1.1/"
   xmlns:cc="http://creativecommons.org/ns#"
   xmlns:rdf="http://www.w3.org/1999/02/22-rdf-syntax-ns#"
   xmlns:svg="http://www.w3.org/2000/svg"
   xmlns="http://www.w3.org/2000/svg"
   version="1.1"
   id="svg2"
   viewBox="0 0 637.79527 336.61418"
   height="95mm"
   width="180mm">
  <defs
     id="defs4" />
  <metadata
     id="metadata7">
    <rdf:RDF>
      <cc:Work
         rdf:about="">
        <dc:format>image/svg+xml</dc:format>
        <dc:type
           rdf:resource="http://purl.org/dc/dcmitype/StillImage" />
        <dc:title></dc:title>
      </cc:Work>
    </rdf:RDF>
  </metadata>
  <g
     transform="translate(0,-715.74803)"
     id="layer1">
    <g
       transform="translate(-14.857143,657.14286)"
       id="g4207">
      <path
         id="path4211"
         d="m 13.428572,226.64792 0,-173.000001 327.999998,0 328,0 0,173.000001 0,173 -328,0 -327.999998,0 0,-173 z"
         style="fill:#fbfcfc" />
      <path
         id="path4209"
         d="m 345.06317,369.37 c -1.39511,-1.02013 -1.68583,-2.48264 -1.44113,-7.25 l 0.30653,-5.97208 4.76153,-0.54725 c 8.58685,-0.98689 8.17197,0.99468 8.73847,-41.73721 l 0.5,-37.71554 8.5,0 8.5,0 0.30686,36.5 c 0.20107,23.91754 -0.0721,38.2649 -0.79257,41.61973 -1.46561,6.82501 -6.48206,12.67018 -12.68884,14.78505 -5.62923,1.91807 -14.27685,2.08246 -16.69085,0.3173 z m -94.16105,-0.93138 c -0.27221,-0.70989 -0.37761,-21.7657 -0.23423,-46.7907 l 0.26068,-45.5 7.7587,-0.29222 c 7.54199,-0.28406 7.78619,-0.21992 8.74286,2.29633 l 0.98417,2.58856 4.45998,-2.61372 c 9.64856,-5.65444 22.05126,-4.00295 29.34249,3.9071 6.36012,6.89992 8.54259,13.95476 8.54259,27.61395 0,9.42775 -0.39164,12.50537 -2.17339,17.07935 -4.68062,12.01565 -14.2226,18.6459 -25.37859,17.63431 -3.22595,-0.29252 -7.36795,-1.45373 -9.34388,-2.61955 -1.95209,-1.15176 -3.9615,-2.09411 -4.46536,-2.09411 -0.50386,0 -1.04063,6.6375 -1.19284,14.75 l -0.27673,14.75 -8.26577,0.2907 c -6.04655,0.21265 -8.39864,-0.0558 -8.76068,-1 z m 36.01277,-40.9586 c 8.00352,-6.29557 8.52713,-27.01865 0.876,-34.66978 -3.21268,-3.21268 -3.71819,-3.38047 -8.89202,-2.95141 -3.94946,0.32752 -6.18363,1.1106 -7.97799,2.79631 -2.43267,2.28538 -2.49231,2.68605 -2.49231,16.74402 l 0,14.40261 2.92308,2.92307 c 2.44214,2.44215 3.73619,2.92308 7.86514,2.92308 3.55545,0 5.71533,-0.60825 7.6981,-2.1679 z m -172.48632,33.11159 c -10.175,-2.13868 -21.762498,-4.60661 -25.749998,-5.48431 l -7.25,-1.5958 0,-3.49818 c 0,-2.84453 5.668508,-39.20914 16.474715,-105.68859 0.699411,-4.30275 1.696105,-8.24763 2.214873,-8.7664 0.55839,-0.55838 12.13625,-0.83453 28.37682,-0.67682 l 27.43359,0.26641 0.5,3.78312 c 0.275,2.08071 0.95,3.78312 1.5,3.78312 0.55,0 1.225,-1.70241 1.5,-3.78312 l 0.5,-3.78312 28.13773,-0.26538 28.13773,-0.26539 0.53156,2.26539 c 0.29235,1.24596 3.56207,27.59868 7.26604,58.56161 4.74139,39.63517 6.42095,56.60976 5.67509,57.35562 -1.37847,1.37847 -43.98434,10.9456 -47.23737,10.60714 -2.41505,-0.25127 -2.80236,-1.49323 -13,-41.68576 -5.78093,-22.78472 -11.01279,-41.58955 -11.62636,-41.78852 -0.70516,-0.22867 -4.85698,14.60082 -11.28504,40.30797 -9.81589,39.25576 -11.34167,44.50452 -12.88456,44.32341 -0.39315,-0.0462 -9.03982,-1.83373 -19.21482,-3.9724 z M 402.4221,343.77355 c -11.92788,-3.91367 -17.5007,-12.813 -15.00554,-23.96259 1.48892,-6.65316 6.6082,-12.13689 13.61942,-14.58901 2.69093,-0.94113 9.25656,-1.96943 14.5903,-2.28512 10.84588,-0.64193 11.46852,-1.10099 9.81622,-7.23719 -1.34297,-4.98741 -4.09204,-7.28392 -8.86927,-7.40918 -4.75552,-0.12469 -8.55049,1.75799 -10.01276,4.96732 -1.01704,2.23216 -1.6213,2.39014 -9.14185,2.39014 -9.66921,0 -10.55653,-1.01647 -6.91113,-7.91702 7.65173,-14.48432 35.15065,-17.66944 47.31108,-5.4799 5.4604,5.47348 5.95114,7.92059 6.6973,33.39692 0.37856,12.925 0.85128,24.4 1.05049,25.5 0.33478,1.84855 -0.25881,2.02193 -7.83876,2.28965 -7.81164,0.2759 -8.27939,0.16995 -9.85305,-2.23176 l -1.65209,-2.52141 -4.43675,2.60011 c -4.759,2.78896 -14.59581,4.0534 -19.36361,2.48904 z m 17.99543,-14.61992 c 3.96536,-2.05057 6.01391,-5.28897 5.99573,-9.47822 -0.025,-5.75561 -0.86777,-6.31629 -8.81884,-5.86702 -7.69434,0.43477 -11.39155,2.61833 -12.60246,7.44299 -0.65242,2.59944 1.56665,7.88275 3.66557,8.72725 2.63332,1.05951 8.97625,0.61453 11.76,-0.825 z m 162.00457,14.61992 c -11.92788,-3.91367 -17.5007,-12.813 -15.00554,-23.96259 1.48892,-6.65316 6.6082,-12.13689 13.61942,-14.58901 2.69093,-0.94113 9.25656,-1.96943 14.5903,-2.28512 10.84588,-0.64193 11.46852,-1.10099 9.81622,-7.23719 -1.34297,-4.98741 -4.09204,-7.28392 -8.86927,-7.40918 -4.75552,-0.12469 -8.55049,1.75799 -10.01276,4.96732 -1.01704,2.23216 -1.6213,2.39014 -9.14185,2.39014 -9.66921,0 -10.55653,-1.01647 -6.91113,-7.91702 7.65173,-14.48432 35.15065,-17.66944 47.31108,-5.4799 5.4604,5.47348 5.95114,7.92059 6.6973,33.39692 0.37856,12.925 0.85128,24.4 1.05049,25.5 0.33478,1.84855 -0.25881,2.02193 -7.83876,2.28965 -7.81164,0.2759 -8.27939,0.16995 -9.85305,-2.23176 l -1.65209,-2.52141 -4.43675,2.60011 c -4.759,2.78896 -14.59581,4.0534 -19.36361,2.48904 z m 17.99543,-14.61992 c 3.96536,-2.05057 6.01391,-5.28897 5.99573,-9.47822 -0.025,-5.75561 -0.86777,-6.31629 -8.81884,-5.86702 -7.69434,0.43477 -11.39155,2.61833 -12.60246,7.44299 -0.65242,2.59944 1.56665,7.88275 3.66557,8.72725 2.63332,1.05951 8.97625,0.61453 11.76,-0.825 z m -276.5189,13.27686 c -0.27412,-0.71435 -0.37953,-15.92016 -0.23423,-33.79069 l 0.26417,-32.49188 8.5,0 8.5,0 0,33.5 0,33.5 -8.26577,0.2907 c -6.07183,0.21354 -8.39805,-0.054 -8.76417,-1.00813 z m 135,0 c -0.27412,-0.71435 -0.37953,-15.92016 -0.23423,-33.79069 l 0.26417,-32.49188 7.9863,0 c 7.19939,0 8.02186,0.19707 8.34707,2 0.62691,3.47552 1.78767,3.6969 5.64803,1.07719 9.60038,-6.515 21.57488,-5.99663 28.99148,1.25503 l 3.3582,3.28351 4.62479,-3.53018 c 5.5514,-4.23748 11.27841,-5.94179 18.03628,-5.36742 10.30035,0.87544 16.35107,6.20262 18.49325,16.28187 0.62922,2.96059 0.95089,14.58525 0.78863,28.5 l -0.27403,23.5 -8.5,0 -8.5,0 -0.5,-24.17178 c -0.49407,-23.88529 -0.52873,-24.20233 -2.92431,-26.75 -3.60394,-3.83273 -10.81737,-3.67359 -15.30991,0.33776 l -3.26578,2.91598 -0.5,23.83402 -0.5,23.83402 -7.91317,0.295 c -5.65526,0.21083 -8.14758,-0.0745 -8.73469,-1 -0.45183,-0.71225 -0.82841,-11.77795 -0.83683,-24.59045 l -0.0153,-23.29546 -2.45455,-2.45454 c -3.46211,-3.46212 -11.23617,-3.48403 -15.23969,-0.043 l -2.80576,2.41162 -0.5,24.33842 -0.5,24.33841 -8.26577,0.2907 c -6.07183,0.21354 -8.39805,-0.054 -8.76417,-1.00813 z M 327.78557,266.70751 c -4.91575,-2.10113 -6.94514,-9.34719 -3.8539,-13.76056 0.82671,-1.18028 3.07671,-2.66531 5,-3.30005 9.52578,-3.14379 17.5376,7.1919 11.24534,14.50709 -2.47693,2.8796 -8.65162,4.15203 -12.39144,2.55352 z m 31.55878,-1.84354 c -2.46433,-2.20188 -3.11578,-3.5875 -3.11578,-6.62727 0,-5.61318 3.59743,-8.92211 9.7,-8.92211 5.70448,0 9.57499,3.26608 9.71522,8.19805 0.2574,9.05328 -9.47962,13.44485 -16.29944,7.35133 z M 101.12441,229.89792 c -0.23221,-0.4125 0.1608,-4.575 0.87335,-9.25 2.16719,-14.21883 2.81763,-29.9577 1.54102,-37.28855 -1.44755,-8.31243 -4.976058,-17.71145 -6.649103,-17.71145 -0.693732,0 -6.81878,3.36938 -13.611218,7.4875 -6.792438,4.11813 -13.08903,7.49313 -13.992426,7.5 -1.392251,0.0106 -18.412983,-24.47754 -22.721363,-32.68977 -1.07421,-2.04756 0.12981,-3.38232 17.138994,-19 34.150839,-31.357003 32.316804,-30.297795 53.778256,-31.058483 16.92817,-0.600009 16.26204,-0.945465 17.23046,8.935683 2.25005,22.95789 25.23155,32.89195 38.96772,16.84432 4.3901,-5.12885 6.74847,-11.59308 6.74847,-18.49739 0,-2.81702 0.54,-5.661861 1.2,-6.321861 1.5099,-1.509897 17.78792,-1.592462 26.76637,-0.135763 9.70699,1.574904 15.90906,5.508574 34.03363,21.585894 25.61512,22.72179 28,24.95777 28,26.25192 0,1.13088 -18.43046,28.49744 -21.78527,32.34795 -0.83859,0.9625 -2.12023,1.75 -2.84809,1.75 -0.72786,0 -6.77955,-3.34306 -13.4482,-7.42902 -6.66865,-4.08596 -12.69837,-7.20892 -13.39937,-6.93992 -4.47431,1.71695 -6.79868,30.0632 -4.21223,51.36894 0.76784,6.325 1.21136,11.8375 0.9856,12.25 -0.22576,0.4125 -26.00736,0.75 -57.29244,0.75 -31.28508,0 -57.07195,-0.3375 -57.30416,-0.75 z"
         style="fill:#00786a" />
    </g>
  </g>
</svg>
