<?xml version="1.0" encoding="UTF-8" standalone="no"?>
<svg
   xmlns:dc="http://purl.org/dc/elements/1.1/"
   xmlns:cc="http://creativecommons.org/ns#"
   xmlns:rdf="http://www.w3.org/1999/02/22-rdf-syntax-ns#"
   xmlns:svg="http://www.w3.org/2000/svg"
   xmlns="http://www.w3.org/2000/svg"
   version="1.1"
   id="svg4684"
   viewBox="0 0 16 16"
   height="16"
   width="16">
  <defs
     id="defs4686" />
  <metadata
     id="metadata4689">
    <rdf:RDF>
      <cc:Work
         rdf:about="">
        <dc:format>image/svg+xml</dc:format>
        <dc:type
           rdf:resource="http://purl.org/dc/dcmitype/StillImage" />
        <dc:title></dc:title>
      </cc:Work>
    </rdf:RDF>
  </metadata>
  <g
     transform="translate(0,-1036.3622)"
     id="layer1">
    <g
       transform="matrix(0.10006096,0,0,0.10006096,-4.9197038,949.03382)"
       id="layer1-3">
      <g
         transform="translate(-2.0203052,2.020306)"
         id="g4264" />
      <path
         id="path4266"
         d="m 86.716698,1007.4663 c -11.546059,-2.429 -21.916976,-4.6387 -23.046482,-4.9103 -3.020123,-0.7264 -2.796271,-3.5172 3.441055,-42.9012 9.113265,-57.54331 10.069188,-62.89963 11.483863,-64.3476 1.088532,-1.11414 5.028716,-1.42499 21.158776,-1.66924 10.90162,-0.16508 21.93916,-0.0376 24.52785,0.28322 4.0402,0.50077 4.78815,0.90788 5.28187,2.875 0.67033,2.67081 2.66055,2.43716 3.07363,-0.36085 0.39597,-2.68203 5.12317,-3.10823 30.74892,-2.77237 l 20.99284,0.27515 1.0906,7.75821 c 4.52994,32.22447 11.53145,96.19144 10.78581,98.54078 -0.4251,1.3393 -3.12798,2.3374 -12.40829,4.5819 -16.46174,3.9813 -29.11807,6.3532 -30.68718,5.7511 -1.87926,-0.7211 -2.32835,-2.1478 -10.42442,-33.11702 -9.44627,-36.13395 -10.71617,-40.35314 -12.01524,-39.92012 -1.34726,0.44909 -1.83047,2.11421 -11.1875,38.55101 -8.15614,31.76053 -9.07167,34.77123 -10.76592,35.40383 -0.58154,0.2172 -10.504122,-1.5926 -22.050182,-4.0215 z M 181.8044,993.35486 c 3.4153,-0.79205 6.69546,-1.8433 7.28926,-2.33611 0.80939,-0.67173 -0.0685,-4.13827 -3.50666,-13.84816 -2.52247,-7.12367 -6.39668,-18.08624 -8.60936,-24.36128 -2.21266,-6.27503 -6.38129,-17.98081 -9.26361,-26.01285 l -5.24058,-14.60372 -8.1313,-0.26583 c -4.47222,-0.1462 -8.49563,0.0985 -8.94093,0.5438 -0.471,0.471 1.48287,7.22854 4.67172,16.15722 3.01473,8.4412 5.30454,15.63366 5.08847,15.98328 -0.21607,0.34962 -2.51421,0.8869 -5.10696,1.19398 -2.59275,0.30707 -4.92969,0.77391 -5.19318,1.0374 -0.77831,0.77831 1.6644,10.42501 2.9705,11.73113 0.85589,0.85588 2.67179,1.03807 6.33152,0.63524 2.82229,-0.31065 5.53575,-0.31496 6.02988,-0.01 0.49414,0.3054 3.56969,8.06563 6.83456,17.24497 3.26486,9.17936 6.16708,17.06344 6.44936,17.52026 0.67965,1.09971 1.08457,1.07005 8.32731,-0.60971 z M 95.058093,976.13497 c 3.198382,-9.00799 6.326567,-16.69979 6.951507,-17.09289 0.62495,-0.39308 1.75237,-0.54491 2.50537,-0.33741 0.753,0.20752 3.41466,0.5062 5.91479,0.66372 4.14455,0.26114 4.64834,0.0733 5.70907,-2.12909 0.63987,-1.32852 1.41422,-4.24548 1.72079,-6.48211 0.54946,-4.00877 0.51534,-4.07502 -2.40043,-4.65817 -1.62679,-0.32536 -4.13866,-0.59156 -5.58192,-0.59156 -3.6769,0 -3.49519,-1.35571 2.40558,-17.94679 2.76632,-7.77804 4.79573,-14.52043 4.50979,-14.98309 -0.67141,-1.08637 -16.57165,-1.10325 -17.242161,-0.0183 -0.939552,1.52025 -26.981126,75.24763 -26.981126,76.38741 0,1.27759 10.024368,3.92518 14.041325,3.70847 2.563852,-0.13824 2.783123,-0.56707 8.447415,-16.52015 z"
         style="fill:#007769" />
    </g>
  </g>
</svg>
